<?xml version="1.0" standalone="no"?>
<!DOCTYPE svg PUBLIC "-//W3C//DTD SVG 20010904//EN"
 "http://www.w3.org/TR/2001/REC-SVG-20010904/DTD/svg10.dtd">
<svg version="1.0" xmlns="http://www.w3.org/2000/svg"
 width="900.000000pt" height="900.000000pt" viewBox="0 0 900.000000 900.000000"
 preserveAspectRatio="xMidYMid meet">
<metadata>
Created by potrace 1.10, written by Peter Selinger 2001-2011
</metadata>
<g transform="translate(0.000000,900.000000) scale(0.100000,-0.100000)"
fill="#000000" stroke="none">
<path d="M0 4500 l0 -4500 4500 0 4500 0 0 4500 0 4500 -4500 0 -4500 0 0
-4500z m4890 3925 c36 -8 95 -14 131 -15 37 0 83 -7 102 -15 20 -8 58 -15 84
-15 26 -1 59 -7 73 -15 14 -8 45 -15 70 -15 25 0 56 -7 70 -15 14 -8 41 -14
61 -15 19 0 44 -7 55 -15 10 -8 33 -15 49 -15 17 0 41 -7 55 -15 14 -8 36 -15
50 -15 14 0 34 -7 44 -15 11 -8 31 -15 45 -15 14 0 35 -7 45 -15 11 -8 29 -15
40 -15 12 0 30 -7 40 -15 11 -8 30 -15 42 -15 12 0 27 -7 34 -15 7 -8 23 -15
35 -15 12 0 28 -7 35 -15 7 -8 20 -15 29 -15 13 0 116 -45 161 -70 8 -5 51
-27 95 -50 105 -54 124 -65 138 -79 6 -6 19 -11 29 -11 10 0 18 -4 18 -8 0 -5
10 -14 23 -21 12 -6 36 -20 52 -31 17 -11 37 -23 45 -27 8 -3 31 -19 51 -35
20 -15 40 -28 43 -28 7 0 206 -147 216 -160 3 -3 27 -24 54 -45 157 -127 429
-399 548 -550 26 -33 68 -85 92 -115 25 -30 45 -60 46 -67 0 -7 6 -16 13 -20
15 -10 135 -187 167 -248 6 -11 19 -33 30 -50 11 -16 25 -42 31 -57 6 -16 15
-28 20 -28 5 0 9 -9 9 -19 0 -11 4 -22 9 -25 10 -7 111 -209 111 -223 0 -6 7
-16 15 -23 8 -7 15 -21 15 -30 0 -10 8 -33 17 -52 9 -18 22 -45 30 -60 7 -14
13 -35 13 -46 0 -11 7 -25 15 -32 8 -7 15 -22 15 -34 0 -12 7 -31 15 -42 8
-10 15 -31 15 -45 0 -14 7 -34 15 -45 8 -10 15 -30 15 -44 0 -14 7 -36 15 -50
8 -14 14 -39 15 -56 0 -16 7 -39 15 -50 8 -10 15 -35 15 -54 0 -19 7 -46 15
-60 8 -14 14 -42 15 -63 0 -21 7 -54 15 -74 8 -19 15 -55 15 -80 0 -24 7 -60
15 -80 8 -20 15 -67 15 -107 1 -39 7 -98 15 -131 21 -85 21 -691 0 -785 -8
-36 -14 -95 -15 -131 0 -37 -7 -83 -15 -102 -8 -20 -15 -60 -15 -89 -1 -29 -7
-64 -15 -78 -8 -14 -15 -45 -15 -70 0 -25 -7 -54 -15 -64 -8 -11 -15 -38 -15
-60 0 -23 -7 -50 -15 -60 -8 -11 -15 -34 -15 -51 0 -17 -7 -40 -15 -51 -8 -10
-15 -32 -15 -49 0 -16 -7 -39 -15 -49 -8 -11 -15 -31 -15 -45 0 -14 -7 -35
-15 -45 -8 -11 -15 -30 -15 -42 0 -12 -7 -27 -15 -34 -8 -7 -15 -21 -15 -32 0
-11 -6 -32 -13 -46 -8 -15 -21 -42 -30 -60 -9 -19 -17 -42 -17 -52 0 -9 -7
-23 -15 -30 -8 -7 -15 -18 -15 -25 0 -8 -7 -26 -14 -42 -8 -15 -17 -35 -20
-43 -3 -8 -10 -22 -15 -30 -5 -8 -12 -22 -16 -30 -3 -8 -21 -42 -40 -75 -19
-33 -39 -70 -44 -82 -5 -11 -15 -24 -20 -28 -6 -3 -11 -15 -11 -26 0 -10 -5
-19 -10 -19 -6 0 -15 -10 -21 -22 -27 -60 -158 -258 -170 -258 -5 0 -9 -6 -9
-12 -1 -7 -21 -38 -46 -68 -24 -30 -66 -82 -92 -115 -123 -156 -415 -447 -563
-562 -41 -32 -138 -108 -156 -123 -7 -6 -17 -10 -23 -10 -6 0 -13 -7 -16 -15
-4 -8 -11 -15 -16 -15 -5 0 -35 -19 -66 -43 -62 -46 -86 -62 -117 -77 -11 -6
-33 -19 -50 -30 -16 -11 -39 -24 -50 -30 -11 -6 -33 -19 -50 -29 -46 -30 -289
-151 -301 -151 -6 0 -17 -7 -24 -15 -7 -8 -23 -15 -35 -15 -12 0 -28 -7 -35
-15 -7 -8 -23 -15 -35 -15 -12 0 -28 -7 -35 -15 -7 -8 -25 -15 -40 -15 -15 0
-33 -7 -40 -15 -7 -8 -22 -15 -34 -15 -12 0 -31 -7 -42 -15 -10 -8 -31 -15
-45 -15 -14 0 -34 -7 -45 -15 -10 -8 -30 -15 -44 -15 -14 0 -36 -7 -50 -15
-14 -8 -38 -15 -55 -15 -16 0 -39 -7 -49 -15 -11 -8 -36 -15 -55 -15 -20 -1
-47 -7 -61 -15 -14 -8 -42 -14 -63 -15 -21 0 -54 -7 -74 -15 -19 -8 -54 -15
-77 -15 -22 -1 -59 -7 -81 -15 -22 -8 -69 -15 -105 -15 -36 0 -94 -7 -130 -15
-49 -11 -147 -14 -400 -14 -253 0 -351 3 -400 14 -36 8 -95 14 -131 15 -37 0
-83 7 -102 15 -20 8 -58 15 -84 15 -26 1 -59 7 -73 15 -14 8 -45 15 -70 15
-25 0 -56 7 -70 15 -14 8 -41 15 -60 15 -19 0 -44 7 -54 15 -11 8 -34 15 -50
15 -17 1 -42 7 -56 15 -14 8 -36 15 -50 15 -14 0 -34 7 -44 15 -11 8 -31 15
-45 15 -14 0 -35 7 -45 15 -11 8 -29 15 -40 15 -12 0 -30 7 -40 15 -11 8 -30
15 -42 15 -12 0 -27 7 -34 15 -7 8 -21 15 -30 15 -10 0 -31 6 -47 14 -37 19
-154 73 -173 80 -8 3 -22 10 -30 15 -8 5 -22 12 -30 15 -8 4 -42 22 -75 41
-33 19 -70 39 -82 44 -11 5 -24 15 -28 20 -3 6 -15 11 -26 11 -10 0 -19 4 -19
8 0 5 -10 14 -23 21 -12 6 -35 20 -52 31 -16 11 -37 23 -45 27 -8 3 -31 19
-51 35 -20 15 -40 28 -43 28 -6 0 -197 141 -222 165 -24 21 -54 45 -59 45 -8
0 -152 136 -280 265 -146 147 -195 200 -244 265 -19 25 -40 50 -46 55 -6 6
-34 42 -63 80 -28 39 -55 75 -60 80 -8 11 -76 109 -104 153 -10 15 -22 36 -28
47 -6 11 -19 34 -30 50 -11 17 -24 39 -30 50 -6 11 -19 34 -29 50 -11 17 -38
66 -61 110 -22 44 -44 87 -49 95 -27 50 -41 83 -41 95 0 7 -7 18 -15 25 -8 7
-15 23 -15 35 0 12 -7 28 -15 35 -8 7 -15 23 -15 35 0 12 -7 28 -15 35 -8 7
-15 22 -15 34 0 12 -7 31 -15 42 -8 10 -15 28 -15 40 0 11 -7 29 -15 40 -8 10
-15 31 -15 45 0 14 -7 34 -15 45 -8 10 -15 31 -15 45 0 14 -7 34 -15 45 -8 10
-15 33 -15 49 0 17 -7 41 -15 55 -8 14 -14 41 -15 61 0 19 -7 44 -15 55 -8 10
-15 38 -15 61 0 24 -6 60 -14 80 -8 21 -17 65 -20 97 -2 32 -10 64 -15 69 -6
6 -11 45 -11 87 -1 41 -7 102 -15 135 -21 86 -21 711 0 805 8 36 14 95 15 131
0 37 7 83 15 102 8 20 15 58 15 84 1 26 7 59 15 73 8 14 15 45 15 70 0 25 7
56 15 70 8 14 15 41 15 60 0 19 7 44 15 54 8 11 15 34 15 50 1 17 7 42 15 56
8 14 15 36 15 50 0 14 7 34 15 44 8 11 15 31 15 45 0 14 7 35 15 45 8 11 15
29 15 40 0 12 7 30 15 40 8 11 15 30 15 42 0 12 7 27 15 34 8 7 15 21 15 30 0
10 6 31 14 47 8 15 29 60 47 98 17 39 35 77 40 85 4 8 26 51 49 95 54 105 65
124 79 138 6 6 11 19 11 29 0 10 5 18 10 18 6 0 15 10 20 23 6 12 19 36 30 52
11 17 23 37 27 45 3 8 19 31 35 51 15 20 28 40 28 43 0 9 147 203 182 241 15
17 28 33 28 37 0 27 414 438 530 527 25 19 50 39 55 46 20 21 134 105 144 105
5 0 14 6 18 13 9 15 148 111 198 137 11 6 34 19 50 30 17 11 39 24 50 30 11 6
34 19 50 29 55 35 351 181 367 181 8 0 21 7 28 15 7 8 23 15 35 15 12 0 28 7
35 15 7 8 22 15 34 15 12 0 31 7 42 15 10 8 28 15 40 15 11 0 29 7 40 15 10 8
31 15 45 15 14 0 34 7 45 15 10 8 31 15 45 15 14 0 34 7 45 15 10 8 33 15 49
15 17 0 41 7 55 15 14 8 41 14 61 15 19 0 44 7 55 15 10 8 38 15 62 15 24 0
55 6 70 14 15 7 58 16 95 19 38 2 74 10 80 16 6 6 45 11 87 11 41 1 100 7 130
15 81 20 719 20 810 0z"/>
<path d="M4433 6925 c-41 -18 -57 -50 -94 -193 -80 -309 -98 -350 -173 -397
-78 -48 -154 -42 -446 33 -274 70 -315 77 -350 60 -35 -18 -69 -92 -70 -151 0
-81 19 -99 148 -139 136 -41 224 -106 274 -200 20 -38 23 -56 23 -158 l-1
-115 -213 -850 c-265 -1061 -251 -1014 -327 -1096 -77 -81 -137 -94 -356 -75
-81 8 -101 6 -121 -6 -29 -19 -81 -117 -97 -180 -11 -41 -10 -52 4 -73 24 -37
53 -48 281 -105 116 -28 238 -61 271 -71 121 -39 186 -104 199 -199 8 -57 8
-57 -52 -307 -52 -217 -52 -248 -2 -284 33 -23 102 -35 143 -25 38 9 61 59
101 216 73 291 98 340 190 386 48 23 64 26 113 21 128 -13 223 -63 264 -139
35 -67 30 -158 -20 -357 -61 -242 -58 -279 31 -316 73 -30 133 -11 160 52 9
21 35 108 56 193 57 221 60 229 96 286 26 41 45 57 91 79 64 30 95 31 329 5
145 -16 427 -8 515 15 330 85 507 272 622 655 25 84 35 301 18 383 -22 109
-73 191 -196 317 -63 64 -120 132 -129 153 -39 93 -11 143 137 243 169 114
261 273 290 501 33 268 -81 492 -334 657 -86 56 -128 78 -311 166 -203 97
-224 173 -142 495 42 167 52 243 35 274 -15 29 -84 60 -131 61 -42 0 -81 -27
-98 -67 -6 -15 -31 -106 -56 -202 -60 -227 -88 -282 -167 -322 -36 -18 -54
-21 -127 -17 -141 8 -239 67 -271 164 -18 54 -7 157 34 319 20 77 38 160 41
185 8 63 -18 102 -81 124 -57 19 -60 19 -101 1z m387 -1159 c240 -71 393 -150
506 -261 84 -84 128 -166 146 -273 31 -184 -67 -385 -233 -480 -168 -95 -476
-99 -809 -10 -136 36 -194 80 -226 170 -22 62 -18 93 36 316 100 412 122 477
181 529 51 46 76 53 179 49 73 -2 124 -12 220 -40z m-395 -1291 c526 -128 808
-306 895 -565 19 -55 21 -81 18 -170 -4 -95 -8 -113 -41 -183 -65 -140 -186
-236 -357 -283 -52 -15 -103 -18 -255 -18 -181 0 -297 12 -430 44 -22 5 -79
19 -127 30 -147 34 -213 72 -259 147 -41 66 -33 136 60 508 46 182 94 353 107
380 25 55 62 95 109 119 46 24 162 20 280 -9z"/>
<path d="M4658 2489 c-15 -8 -18 -25 -18 -99 0 -81 2 -90 21 -101 20 -11 98
-6 134 7 18 7 55 70 55 94 0 30 -40 90 -64 95 -58 12 -113 14 -128 4z m107
-75 c15 -23 15 -27 0 -50 -8 -13 -24 -24 -35 -24 -17 0 -20 7 -20 50 0 42 3
50 19 50 10 0 26 -12 36 -26z"/>
<path d="M4882 2491 c-9 -5 -12 -36 -10 -107 l3 -99 140 0 c138 0 140 0 143
23 2 13 -3 25 -12 28 -23 9 -22 92 2 110 13 10 15 17 6 31 -10 16 -28 18 -136
20 -68 1 -130 -2 -136 -6z m176 -95 c2 -27 -1 -53 -6 -58 -13 -13 -114 2 -109
16 2 6 16 11 31 12 48 2 61 46 15 52 -71 9 -59 27 18 27 l48 0 3 -49z"/>
<path d="M5192 2467 c-28 -29 -28 -62 -1 -81 l21 -14 -21 -11 c-25 -14 -27
-43 -6 -61 9 -7 41 -13 71 -13 47 0 60 4 80 26 30 32 30 51 3 78 -18 18 -20
24 -9 44 22 41 7 55 -58 55 -48 0 -62 -4 -80 -23z m113 -37 c4 -6 -7 -10 -24
-10 -17 0 -31 5 -31 10 0 6 11 10 24 10 14 0 28 -4 31 -10z m-35 -80 c11 -7 7
-10 -17 -10 -18 0 -33 5 -33 10 0 13 30 13 50 0z"/>
</g>
</svg>
