/* XPM */
static char *deis32_png[] = {
/* columns rows colors chars-per-pixel */
"32 32 113 2 ",
"   c #000000",
".  c #060708",
"X  c #0A0B0B",
"o  c #120A02",
"O  c #11100F",
"+  c #161616",
"@  c #161718",
"#  c #1B1A1A",
"$  c #221403",
"%  c #2E1B05",
"&  c #201F1E",
"*  c #25221F",
"=  c #242322",
"-  c #2A2927",
";  c #252729",
":  c #312C26",
">  c #35322D",
",  c #3B332A",
"<  c #373532",
"1  c #3B3732",
"2  c #523109",
"3  c #633B0B",
"4  c #443B2F",
"5  c #423F3A",
"6  c #72440C",
"7  c #4A453F",
"8  c #55493B",
"9  c #454340",
"0  c #4B4A49",
"q  c #534C43",
"w  c #5B4F42",
"e  c #54504C",
"r  c #635544",
"t  c #6F5C44",
"y  c #60574C",
"u  c #6B5D4C",
"i  c #6C5F50",
"p  c #766046",
"a  c #76624A",
"s  c #736451",
"d  c #726A61",
"f  c #834E0E",
"g  c #A16012",
"h  c #B16F20",
"j  c #BA7521",
"k  c #CC7916",
"l  c #886D4D",
"z  c #826C52",
"x  c #8F7351",
"c  c #83715C",
"v  c #9D7D56",
"b  c #9D7E58",
"n  c #A37D50",
"m  c #8A7B69",
"M  c #947E63",
"N  c #D78018",
"B  c #DE8519",
"V  c #E68A1A",
"C  c #EA8C1A",
"Z  c #F6941E",
"A  c #F9961D",
"S  c #D58D35",
"D  c #ED952A",
"F  c #F69722",
"G  c #F79825",
"H  c #F99926",
"J  c #F1972B",
"K  c #F79A29",
"L  c #F89B2B",
"P  c #EF9D3A",
"I  c #F69D32",
"U  c #F89E32",
"Y  c #F19E39",
"T  c #F9A136",
"R  c #F5A13B",
"E  c #FBA43C",
"W  c #BD8B4F",
"Q  c #A48157",
"!  c #A98457",
"~  c #AA865C",
"^  c #B48A58",
"/  c #B88E5C",
"(  c #BD915B",
")  c #AC8A61",
"_  c #AB8E6A",
"`  c #AF926F",
"'  c #B79163",
"]  c #BD9666",
"[  c #B39571",
"{  c #D99748",
"}  c #CC9552",
"|  c #C79659",
" . c #CC995D",
".. c #D39A55",
"X. c #D39D5D",
"o. c #E99D42",
"O. c #DFA157",
"+. c #DBA35E",
"@. c #EEA246",
"#. c #EFA64E",
"$. c #F5A544",
"%. c #FAA642",
"&. c #F2A649",
"*. c #F6A94B",
"=. c #E6A455",
"-. c #E9A553",
";. c #EFA852",
":. c #E5A65A",
">. c #E8A758",
",. c #C29763",
"<. c #CC9B61",
"1. c #C69E6E",
"2. c #D2A064",
/* pixels */
"                                                                ",
"                          o $ % % $ o                           ",
"                    $ 3 g k V V V V k g 3 $                     ",
"                $ f k Z A A A A A A A A A N f $                 ",
"              2 k A A A F F F F F F F F A A A k 2               ",
"            6 C A A F F G G G G G G G G F F A A C 6             ",
"          6 Z A F F G G G K K R Y K G G G G F F A Z 6           ",
"        2 C A A H G G G K K U _ ` R :.@.K G G F A A C 2         ",
"      $ k A A F G K K $.=.$.&.y Q *.d ] L K K G F F A k $       ",
"      f A F F G K K L 1.0 r a * !  .9 ..U L K K G F A A f       ",
"    $ N A F G K L L U -.~ *     = = # / $.U L L G G F A N $     ",
"    3 A A F G K L U U U *.w   4 v u & @ s =.U L K G F A A 3     ",
"    g A F G G K U U U T >.1 . v E *.| :   i &.L K G G F A g     ",
"  o k A F G K L U U T T <.# + } L U L p   > =.U L G G F A k o   ",
"  $ B A F G K L L U Y %.) . + W P I o.5   q ;.U L K G F A B $   ",
"  % V A F G K L U I T *.y   O 5 q 8 : . > ,.T U L K G F A V %   ",
"  % V A F K K L U U U >.1   l ..~ w X . z *.U U U K G F A V %   ",
"  $ B A F G K L U T T  .# + } T %.&.l . # ' T U L K G F A B $   ",
"  o k A F G K K U :.+.z . > o.K U H { &   s %.U L K G F A k o   ",
"    g A F G G K R m ; X   , { Y U Y n X . z E L K K F F A g     ",
"    3 A A F G K R X.b w . X - 7 r 8 @   = <.U L L G F A A 3     ",
"    $ k A F G G K L T O.< x t X = - = 1 ) R L K G G F A k $     ",
"      f A A A H K L L ( e ;.^ q X.....#.R L L K G F A A f       ",
"      $ k A F H G K L 2.[ $.M c S h j D L K K G F F A k $       ",
"        2 C A H F G G L U I +.+.L J J K G G H F F A Z 2         ",
"          6 Z A F F G G G K G K K K K G G H F H Z Z 6           ",
"            6 C A A F F G G G G G G G G F F A A C 6             ",
"              2 k Z A A F F F F F F F F A A A k 2               ",
"                $ f N A A A A A F A A A Z k f $                 ",
"                    $ 3 g k B C V B k g 3 $                     ",
"                          o $ % % $ o                           ",
"                                                                "
};
