/* XPM */
static char *deis16_png[] = {
/* columns rows colors chars-per-pixel */
"16 16 108 2 ",
"   c black",
".  c #020100",
"X  c #140C02",
"o  c #281704",
"O  c #271704",
"+  c #341F05",
"@  c #8E5510",
"#  c #C77817",
"$  c #DC841A",
"%  c #C77717",
"&  c #070400",
"*  c #6D410C",
"=  c #E1871B",
"-  c #FA9820",
";  c #FA9923",
":  c #F99924",
">  c #F99923",
",  c #FA9922",
"<  c #6E410C",
"1  c #010000",
"2  c #6E420C",
"3  c #F0911D",
"4  c #F99823",
"5  c #F79927",
"6  c #FC9D2A",
"7  c #E39A41",
"8  c #E29A44",
"9  c #ED9C3A",
"0  c #F79928",
"q  c #351F05",
"w  c #E1881B",
"e  c #F89927",
"r  c #E69B40",
"t  c #AB7E48",
"y  c #7C603E",
"u  c #9C784D",
"i  c #A78052",
"p  c #F99F31",
"a  c #F79926",
"s  c #F89C2C",
"d  c #F2A03D",
"f  c #7E613D",
"g  c #1E1A16",
"h  c #5E4D37",
"j  c #554532",
"k  c #C48941",
"l  c #F89D2F",
"z  c #F79A29",
"x  c #F79D30",
"c  c #FBA33A",
"v  c #7F5F3A",
"b  c #624A2E",
"n  c #F5A341",
"m  c #896335",
"M  c #3B3228",
"N  c #E89A3D",
"B  c #F89A28",
"V  c #F89824",
"C  c #F79B2B",
"Z  c #F89E31",
"A  c #F2A241",
"S  c #4C3D2B",
"D  c #52412D",
"F  c #A6773E",
"G  c #564026",
"H  c #5D4A32",
"J  c #EF9E3C",
"K  c #F89B2A",
"L  c #FA9F32",
"P  c #DA9746",
"I  c #362E26",
"U  c #AF7D40",
"Y  c #B38145",
"T  c #342A1F",
"R  c #86663E",
"E  c #F9A137",
"W  c #F99B29",
"Q  c #D99749",
"!  c #67523A",
"~  c #2A231B",
"^  c #D08D3B",
"/  c #EE9B36",
"(  c #604628",
")  c #4A3C2B",
"_  c #F29F3A",
"`  c #F89926",
"'  c #E99A3B",
"]  c #9C7240",
"[  c #453A2C",
"{  c #534331",
"}  c #564632",
"|  c #382F26",
" . c #9F733E",
".. c #F99E30",
"X. c #FA9A26",
"o. c #DD9743",
"O. c #BC8E57",
"+. c #967651",
"@. c #B37D3D",
"#. c #CF8B3A",
"$. c #F69D32",
"%. c #F69A2A",
"&. c #F49D32",
"*. c #E79B40",
"=. c #F0972C",
"-. c #F39727",
";. c #FB9820",
":. c white",
/* pixels */
"          . X o O X .           ",
"      . + @ # $ $ % @ + .       ",
"    & * = - ; : > , - = < &     ",
"  1 2 3 4 5 6 7 8 9 0 4 3 * 1   ",
"  q w 4 e r t y u i p 5 4 = +   ",
"  @ - a s d f g h j k l a - @   ",
"X % ; z x c v b n m M N B ; % X ",
"O $ V C Z A S D F G H J K V $ O ",
"O $ V C L P I U Y T R E K V $ O ",
"X # ; W Q ! ~ ^ / ( ) _ B ; % X ",
"  @ - ` ' ] [ { } |  ...a - @   ",
"  q = 4 X.o.O.+.@.#.$.e 4 = q   ",
"  1 < 3 4 %.&.*.=.-.a 4 3 < 1   ",
"    & < w ;., > : ; - = * &     ",
"      . + @ % $ $ # @ + .       ",
"          . X O O X .           "
};
