/* XPM */
static char *deis64_png[] = {
/* columns rows colors chars-per-pixel */
"64 64 169 2 ",
"   c #000000",
".  c #0D0701",
"X  c #0F0901",
"o  c #060708",
"O  c #070809",
"+  c #0B0C0C",
"@  c #110A01",
"#  c #180E02",
"$  c #1F1203",
"%  c #0E0F10",
"&  c #0F1011",
"*  c #131415",
"=  c #161819",
"-  c #1A1C1D",
";  c #221403",
":  c #331E05",
">  c #3F2507",
",  c #1F1F20",
"<  c #222425",
"1  c #252628",
"2  c #27292A",
"3  c #2B2C2C",
"4  c #302E2C",
"5  c #32312F",
"6  c #2D2E30",
"7  c #2E3032",
"8  c #323335",
"9  c #363738",
"0  c #37383A",
"q  c #3A3A3B",
"w  c #412607",
"e  c #452907",
"r  c #4B2C08",
"t  c #5A3509",
"y  c #61390A",
"u  c #433F3B",
"i  c #71430C",
"p  c #7A480D",
"a  c #49443E",
"s  c #3D3F42",
"d  c #3E4041",
"f  c #434345",
"g  c #434649",
"h  c #4B4C4D",
"j  c #4F5053",
"k  c #545454",
"l  c #5E5D5C",
"z  c #62594E",
"x  c #605D5A",
"c  c #69645F",
"v  c #73685B",
"b  c #666564",
"n  c #6D6C6A",
"m  c #7D7264",
"M  c #75726D",
"N  c #777471",
"B  c #787572",
"V  c #7D7974",
"C  c #925710",
"Z  c #945810",
"A  c #9D631F",
"S  c #A76412",
"D  c #A96412",
"F  c #B76D14",
"G  c #B86D14",
"H  c #A16620",
"J  c #A36820",
"K  c #AC6D20",
"L  c #C67616",
"P  c #C87716",
"I  c #CD7A17",
"U  c #D07C17",
"Y  c #847D74",
"T  c #8C7F71",
"R  c #837F7A",
"E  c #DD8418",
"W  c #E18619",
"Q  c #ED8D1A",
"!  c #F79117",
"~  c #F7941C",
"^  c #F9951C",
"/  c #E9932B",
"(  c #F79622",
")  c #F89723",
"_  c #F79825",
"`  c #F89927",
"'  c #F79B2C",
"]  c #F89B2B",
"[  c #EF9D3B",
"{  c #F69D32",
"}  c #F89E32",
"|  c #F49F39",
" . c #F8A036",
".. c #F6A23D",
"X. c #F8A23A",
"o. c #9D876E",
"O. c #86817B",
"+. c #8B847D",
"@. c #92887D",
"#. c #9B8E7E",
"$. c #A7947E",
"%. c #BA9A72",
"&. c #B69C7E",
"*. c #F5A443",
"=. c #F9A541",
"-. c #F9A847",
";. c #F4A74B",
":. c #F6AA4D",
">. c #EFA751",
",. c #EFAA57",
"<. c #F5AB53",
"1. c #F3AE5B",
"2. c #F3B05F",
"3. c #C6A47B",
"4. c #C8A67E",
"5. c #DFAF75",
"6. c #D3AA7A",
"7. c #DBAF79",
"8. c #DDB17D",
"9. c #E8AF6B",
"0. c #EFB166",
"q. c #EEB26B",
"w. c #F2B163",
"e. c #F2B469",
"r. c #E3B073",
"t. c #EBB573",
"y. c #E5B57C",
"u. c #E9B678",
"i. c #E6B87F",
"p. c #8A8681",
"a. c #938C83",
"s. c #988F84",
"d. c #9D9183",
"f. c #929191",
"g. c #9B9B9B",
"h. c #A29483",
"j. c #AC9983",
"k. c #A09588",
"l. c #A5998A",
"z. c #AA9C8B",
"x. c #B29D84",
"c. c #A79D91",
"v. c #B6A58F",
"b. c #BFA98F",
"n. c #AFA69A",
"m. c #BEAA92",
"M. c #B5A899",
"N. c #AEABA8",
"B. c #B2ABA2",
"V. c #B5B1AC",
"C. c #C6A884",
"Z. c #CAAB85",
"A. c #CAAE8C",
"S. c #D0AC82",
"D. c #DDB584",
"F. c #D5B48C",
"G. c #D8B68D",
"H. c #C1AB91",
"J. c #C0AE98",
"K. c #CCB293",
"L. c #C2B09A",
"P. c #D3B693",
"I. c #DCBC95",
"U. c #D6BB99",
"Y. c #D9BD9B",
"T. c #E4B781",
"R. c #E4B983",
"E. c #E3BB8B",
"W. c #D0BFAB",
/* pixels */
"                                                                                                                                ",
"                                                                                                                                ",
"                                                                                                                                ",
"                                                      @ ; : w r e w : ; @                                                       ",
"                                              $ r p D P E Q Q Q Q Q Q E P D p e #                                               ",
"                                        X w Z U Q ~ ^ ^ ^ ~ ~ ~ ~ ~ ~ ~ ^ ^ ~ ! U Z e X                                         ",
"                                    X t F Q ^ ~ ^ ~ ~ ~ ~ ~ ~ ^ ~ ~ ^ ~ ~ ~ ~ ~ ~ ^ Q G t @                                     ",
"                                  r F ! ~ ~ ~ ~ ^ ^ ~ ^ ( ( ( ( ( ( ( ( ~ ( ~ ~ ~ ~ ~ ^ ~ G r                                   ",
"                              ; Z Q ~ ~ ~ ~ ^ ( ~ ( ( ( ( ( ( ( ^ ( ( ( ( ( ( ( ~ ~ ~ ~ ~ ^ Q C ;                               ",
"                            w L ~ ~ ~ ~ ~ ^ ( ( ( ( ( ( ( ( ( ( ) ( ( ( ( ( ( ( ) ( ( ~ ~ ~ ~ ^ L r                             ",
"                          y W ^ ~ ~ ~ ( ( ( ) ( ( _ ( _ _ _ _ _ _ _ _ _ _ ( ) ( ( ( ( ( ( ~ ~ ~ ^ W y                           ",
"                        i Q ~ ~ ^ ~ ( ( ( ( ( ( _ _ ] _ _ _ _ _ _ ] _ _ _ _ _ _ ( ( ( ( ( ( ~ ~ ~ ^ Q i                         ",
"                      i ! ~ ~ ~ ( ( ( ( ( _ _ _ _ _ _ _ ` ` ` ` ` ` _ ] ` ` _ _ _ _ ( ( ( ( ( ~ ~ ~ ^ Q i                       ",
"                    y Q ^ ~ ~ ( ( ( ( ( _ _ ( _ _ ] ] ] ] ] ..,.*.' ] ` ] ` _ _ ] _ _ _ _ ( ( ( ~ ~ ~ ^ Q y                     ",
"                  e W ^ ~ ^ ( ( ( ( _ _ _ _ ` ] ` ] ] ] ' ] q.N.M.E.' ] { { _ ] ] _ _ _ _ _ ( ( ( ( ~ ~ ~ W w                   ",
"                ; P ^ ~ ~ ~ ( ( ( ( _ _ _ ] ` ] ] ] ] ] ' ' F.9 f I.{ { E.U.i.*._ ] ] _ _ _ ( ( ( ( ( ~ ~ ^ L $                 ",
"                Z ~ ~ ~ ~ ( ( ( _ _ _ ` ] ] ] ' ] ] ] ' } ..v.* k t.' =.n.q g.q.` ] ] ] ` ` ) ` ( ( ( ( ~ ~ ~ C                 ",
"              r Q ~ ~ ^ ( ( ( _ _ _ ` ] ` ] { E.E.q.:.X.] 1.O.+ +.1.' w.B + s.:.] ] ] ] ` ] ` ` ( ( ( ( ~ ~ ~ Q r               ",
"            @ G ^ ~ ~ ( ( ( _ _ _ ] ] ` ] ] -.n.h b s.H.D.3.q + h.=.' i.h - b.X.' ] ' ' ] ` ` ` _ ( ( ( ( ^ ~ ^ G X             ",
"            t ~ ~ ^ ( ( ) ( _ _ _ ] ] ] ' ] 0.f.*   O , 9 <     v y.w.&.- 0 D.} } } ' ' ] ] ` ` _ ` ( ( ( ( ~ ~ ~ t             ",
"          X G ^ ~ ~ ( ( ( ` ) ` ] ] ' ' ' ' <.Y.z.l +           + f x 4   q r.} ] } } ' ] ] ] ] ] _ _ ( ( ( ~ ~ ^ F .           ",
"          e Q ^ ~ ( ( ) ( ` ` ] ] ] ] '  .{ '  .-.u.c                     + Y F.w.X.] } } ] ] ] ] _ _ ( ( ( ( ~ ~ Q e           ",
"          C ^ ~ ~ ( ( ( _ _ ` ` ] ] ' } } '  . . .=.j.+       4 c k 6 +     + 9 +.G.:.} } ' ] ] ` ` _ _ ( ( ( ~ ~ ~ C           ",
"        # U ~ ~ ~ ( ( ( _ _ ] ` ] ] ' } }  .}  .X.:.d.+     - &.<.u.F.k.k +     O h J.<.} } ] ] ] ` ` _ _ ( ( ~ ~ ~ I #         ",
"        e Q ^ ~ ( ( ( _ ` ` ` ] ] ] }  .} X. .}  .e.B       h y.' X.=.<.u.@.-       f K.=.} ] ] ] ] ` _ _ ( ( ( ~ ~ Q e         ",
"        p ^ ~ ^ ( ( ( _ ` ` ] ] ]  .] } } }  .X.X.R.h       N 1.] ..-.X.' w.Y o       R e.' } ' ] ] ` _ _ ( ( ( ~ ~ ^ p         ",
"        S ^ ~ ~ ( ( ( _ ` ] ] ] ] ]  .} } X.} X...K.1     % l...] X.X. .' ) 4.,       k i.} } ' ] ] ] _ _ _ ( ( ^ ~ ^ D         ",
"      @ P ^ ~ ( ( ( _ _ ` ] ] ' } } }  .}  .X.X.<.l.%     1 Z.) ] ' ' ' ) ^ 6.2       h T.' } ' ] ] ] _ _ _ ( ( ^ ^ ^ P @       ",
"      ; E ^ ~ ^ ( ( _ _ ] ] ] ' } } } } X.X.X. .e.V       9 9.! ~ ~ ( ( ~ } j.*       n t.' } } ] ] ] ] _ _ ( ( ( ~ ^ E ;       ",
"      : Q ~ ~ ( ( ( _ _ _ ] ' ' } } } }  . .X.X.R.h       * o.r.<...} } ;.C.f       * c.<.} } ' ' ] ] ` _ _ ( ( ( ~ ^ W >       ",
"      w Q ^ ^ ( ( ( _ _ ] ] ] ' ] } } X. .X.X.=.K.1         * g n +.#.#.M 8       + M R. . .} } ' ] ] ` _ _ ( ( ( ~ ~ Q >       ",
"      e Q ~ ~ ( ( ( _ _ ] ] ] ' } } } } } X.X.<.l.+       , 8 - +   o o         = O.I.=.]  .} } ' ] ] ] _ _ ( ( ( ^ ~ ! e       ",
"      e ! ~ ^ ( ( ( _ _ ] ] ] } } } } }  . . .e.V       4 %.8.H.s.l 1 o         z t.X. . .} } } ' ] ] ] _ ( ( ( ( ~ ~ ! e       ",
"      w Q ~ ~ ( ( ( _ ` ` ] ' ' } } }  .X.X. .R.h       M 1.` X.<.u.A.M -       5 H.1.} } } } } ' ' ] ] _ ] _ ( ( ~ ~ Q >       ",
"      : Q ~ ~ ( ( ( ` ` ` ] ] ' } } }  . . .X.K.1     + l...} X.=.X.X.e.j.2       s L.:. .} } } ] ] ] ) _ _ ( ( ( ~ ~ W :       ",
"      ; E ~ ~ ( ( ( ) ` ` ] ] ' ' } } }  . .:.z.+     < A.] } X.-...X.` <.@.+       l R.} } } } ] ] ] ] _ ) ( ( ( ~ ~ E ;       ",
"      @ I ^ ^ ~ ( ( _ _ ` ] ] ] ' } } *. . .e.n       h r.( ' | X.| } ] ^ 6.2       1 K.X.} } } ] ] ] ` ) ) ( ( ~ ^ ^ L @       ",
"        D ^ ~ ^ ( ( ( _ ` _ ] ] ' } 1.W.K.8.$.<       M <.~ ` ' } ' ] ( ~ 6.8       - H.X.} } } ] ] ] ` ] ) ( ( ~ ~ ^ S         ",
"        p ^ ~ ~ ( ( ( _ _ ] _ ] ] { G.j 2 9 *       o T | ! ~ ^ ( ( ~ ! ' x.*       1 K. .} ] ] ] ] ` ` ) ) ( ( ~ ~ ^ p         ",
"        e Q ~ ~ ( ( ( _ _ _ ] ] ] <.B.,               a 4.9.;.| ] ] ] *.S.h         j T.' } } ] ] ] ` ) ) ) ) ( ~ ^ Q e         ",
"        # U ^ ^ ~ ) ( ) ] _ ] ] ] >.Y.z.B h < o       o < k V d.x.x.x.Y q         + a.1.' } ] ] _ ] ] _ ) ( ( ~ ~ ^ I #         ",
"          C ^ ~ ~ ( ( ( _ _ _ ] ] ] { -.w.i.A.m +             + * * & o           h G.| } ' ] ] ] ] ) _ ( ( ( ~ ~ ^ C           ",
"          e Q ~ ~ ( ( ( ( _ _ _ ] ] ' ' ' } X.5.9   u Y l *                   o f J.;.} ' ' ] ] ] ) _ ) ) ( ( ~ ~ Q e           ",
"          . G ~ ~ ^ ( ( ( _ _ ] ] _ ] ' ' ' } F.7 < C.<.q.m o o 8 j s 8 3 9 j p.P.<.' ' ' ] ` ] ] ) _ ( ( ( ~ ~ ^ F X           ",
"            t ! ~ ~ ~ ( ( _ _ _ ` _ ] ] ] } X.m.* k u.} -.d.o f 7.t.D.F.F.G.i.2.X.' ] ] ] ] ` ` _ _ ( _ ( ( ^ ~ ! t             ",
"            X F ~ ~ ~ ( ( ( _ _ _ ] _ ] ] ] <.+.O O.1.' 2.V O a.<.' { { { ' ' } } ' ] ] ] ] ] ` ) ( ( ( ( ~ ~ ^ F @             ",
"              r Q ~ ~ ~ ( ( ( ( ) ] ] ] ] _ t.g.g m.*.' y.j = b.[ H A A H A / ' ' ' ] ] ] ` ` ` ) ( ( ( ~ ~ ^ Q r               ",
"                C ~ ~ ~ ( ( ) ) ) ) _ ) ] ] *.u.Y.E.' { I.d d D.{ K J K K K / ' ' ] ] ` ` ` ` ) ( ( ( ( ~ ~ ^ Z                 ",
"                $ L ^ ~ ~ ^ ( ( ( _ _ _ ` ] _ _ ' { ] { E.M.V.q.' ' ' ] ' ' ] ] ] ] ] _ _ _ _ ( ( ( ( ! ^ ^ P $                 ",
"                  w W ^ ~ ^ ( ( ( ( _ _ _ _ ] ] ] ] ] ] ' ..1...] ] ] ] ] _ ] ] _ _ _ _ _ ( ( ( ( ( ~ ~ ^ W e                   ",
"                    y Q ~ ~ ^ ( ( ( ( _ _ _ _ _ ` ] ] _ ] _ _ ] ] ] ] ] ] ` ] _ ` _ _ _ _ ( ( ( ( ~ ~ ~ ! t                     ",
"                      i Q ~ ~ ~ ~ ( ( ) ( ( _ _ _ _ ` _ ] _ ] ] ` ] ] ` ` ` _ _ _ _ _ ( ( ( ( ~ ~ ~ ~ Q i                       ",
"                        i Q ^ ~ ~ ^ ( ( ( ( ( ( _ _ _ _ _ _ _ _ _ _ _ _ _ _ _ _ ( ( ( ( ( ( ^ ~ ~ ^ Q i                         ",
"                          y W ^ ~ ~ ^ ~ ( ( ( ( ( ( _ _ _ _ _ _ _ ) _ _ ` ) ( ( ( ( ( ( ( ~ ~ ~ ^ W y                           ",
"                            r P ~ ~ ~ ~ ~ ( ( ( ( ^ ( ( ( ( ( ( ( ( ( _ ( ( ( ( ( ) ( ~ ~ ~ ^ ^ L w                             ",
"                              ; Z Q ~ ~ ~ ^ ~ ^ ( ( ( ( ( ( ( ( ( ( ( ( ( ( ( ( ~ ~ ~ ~ ~ ^ Q C $                               ",
"                                  r G ~ ^ ^ ~ ~ ~ ~ ^ ^ ( ( ( ( ( ( ( ( ( ~ ~ ~ ~ ~ ~ ~ ~ F r                                   ",
"                                    @ t G Q ^ ^ ~ ^ ~ ~ ~ ~ ~ ~ ~ ~ ^ ^ ~ ~ ~ ^ ^ ^ Q F t X                                     ",
"                                        . e C U Q ^ ~ ~ ^ ~ ~ ~ ~ ~ ~ ^ ^ ^ ^ Q U C e .                                         ",
"                                              # e p S L E Q Q ! ! Q W E P D p e #                                               ",
"                                                      @ ; : w e e > > ; @                                                       ",
"                                                                                                                                ",
"                                                                                                                                ",
"                                                                                                                                "
};
